PathFileType  4	(X/Y/Z) C:\Users\antoi\Documents\MyRepositories\mobilecap\ResultsAnalysis
DataRate	CameraRate	NumFrames	NumMarkers	Units	OrigDataRate	OrigDataStartFrame	OrigNumFrames
100.0	100.0	4	51	mm	100.0	20	156
Frame#	Time	r_knee			r_shank_antsup			r_ankle			r_calc			r_5meta			r_toe			L_knee			L_shank_antsup			L_ankle			L_calc			L_5meta			L_toe			r_sh2			r_sh3			r_sh4			L_sh2			L_sh3			r_thigh1			r_thigh2			r_thigh3			r_thigh4			r_thigh5			L_thigh1			L_thigh2			L_thigh3			L_thigh4			r.ASIS			r.PSIS			L.ASIS			L.PSIS			C7			R_Shoulder			L_Shoulder			R_Sternum			L_Sternum			R_humerus			R_elbow_med			R_elbow_lat			R_forearm			R_wrist_radius			R_wrist_ulna			L_humerus			L_elbow_med			L_elbow_lat			L_forearm			L_wrist_radius			L_wrist_ulna			R_HJC			L_HJC			R_HJC_reg			L_HJC_reg			
		X1	Y1	Z1	X2	Y2	Z2	X3	Y3	Z3	X4	Y4	Z4	X5	Y5	Z5	X6	Y6	Z6	X7	Y7	Z7	X8	Y8	Z8	X9	Y9	Z9	X10	Y10	Z10	X11	Y11	Z11	X12	Y12	Z12	X13	Y13	Z13	X14	Y14	Z14	X15	Y15	Z15	X16	Y16	Z16	X17	Y17	Z17	X18	Y18	Z18	X19	Y19	Z19	X20	Y20	Z20	X21	Y21	Z21	X22	Y22	Z22	X23	Y23	Z23	X24	Y24	Z24	X25	Y25	Z25	X26	Y26	Z26	X27	Y27	Z27	X28	Y28	Z28	X29	Y29	Z29	X30	Y30	Z30	X31	Y31	Z31	X32	Y32	Z32	X33	Y33	Z33	X34	Y34	Z34	X35	Y35	Z35	X36	Y36	Z36	X37	Y37	Z37	X38	Y38	Z38	X39	Y39	Z39	X40	Y40	Z40	X41	Y41	Z41	X42	Y42	Z42	X43	Y43	Z43	X44	Y44	Z44	X45	Y45	Z45	X46	Y46	Z46	X47	Y47	Z47	X48	Y48	Z48	X49	Y49	Z49	X50	Y50	Z50	X51	Y51	Z51	

20	0.19000000	155.67187	470.64040	-124.89071	201.96828	362.32627	-145.43909	158.73450	85.58783	-182.26421	113.49912	54.61183	-235.09443	276.62925	37.43299	-155.72991	313.29272	57.23705	-198.82534	73.49863	426.48626	-429.45679	26.39070	324.36683	-384.75158	-260.56685	240.93408	-388.58918	-306.07647	269.02899	-340.34103	-260.64092	102.22421	-385.56424	-216.62668	86.38166	-337.94326	203.74537	251.38144	-166.51708	145.23862	349.66276	-95.65910	130.54573	241.28419	-125.36066	9.84451	378.39104	-451.40297	-95.98313	320.49733	-455.46689	218.86449	782.21359	-134.83876	235.99698	670.71927	-137.59331	193.63756	640.91933	-90.96599	121.24858	765.29162	-79.88465	139.11892	650.97899	-81.51013	152.08208	713.56856	-444.87297	163.55648	577.14695	-447.63372	42.70339	709.05853	-465.19769	53.11883	569.03134	-452.36279	210.08240	931.29362	-173.06052	22.16976	971.63940	-236.45102	198.18601	896.24116	-415.18536	16.50627	959.10058	-351.52715	107.19746	1399.68710	-198.71022	129.61513	1316.18520	-57.66290	200.41944	1404.14798	-343.96911	219.01600	1318.96904	-178.17590	229.64044	1328.98375	-220.05548	114.17232	1183.10466	-14.00874	19.17192	1010.86349	-99.64279	22.02090	1009.84923	-23.25540	63.58518	887.52935	-1.41101	93.10086	789.22603	1.73539	56.47893	781.79270	6.51370	200.29930	1273.20000	-441.54176	67.72667	1112.04474	-462.90342	112.64994	1123.96148	-520.92302	153.19850	1027.21498	-533.13699	158.76803	894.57079	-527.99152	145.13982	896.29053	-557.74261	115.03990	860.82391	-184.10001	109.95030	831.37781	-371.10546	133.51925	856.10031	-195.60594	125.61855	838.61096	-356.12256	
21	0.20000000	160.02251	470.96244	-125.04916	205.36056	362.18933	-145.69034	159.07406	85.84277	-182.55658	113.71169	54.65598	-235.25347	276.73600	37.28813	-155.66771	313.46766	56.88943	-198.78629	96.62522	426.70827	-429.28211	48.26408	325.02918	-383.95787	-239.01449	245.91348	-390.18660	-285.09025	273.64691	-341.89738	-239.42313	107.62620	-389.36610	-195.94747	90.78775	-341.44961	205.99570	251.21828	-166.80882	148.59898	350.05385	-95.81537	132.77196	241.79969	-125.56858	33.44032	378.93821	-451.24676	-73.08547	322.29685	-456.07415	227.11940	781.94326	-134.60783	242.71731	670.22955	-137.48622	200.09374	640.79183	-90.72526	128.96224	766.00032	-79.83728	145.50367	651.44413	-81.57296	165.64077	715.39587	-444.65770	181.61601	579.43620	-447.65083	56.52987	707.54847	-465.47730	71.41002	567.82778	-452.53222	219.31509	931.91602	-172.54238	31.47197	972.52270	-236.32381	207.58333	897.80528	-414.70229	25.81492	959.86305	-351.44223	117.43797	1400.31767	-196.49172	140.50374	1315.89792	-55.87521	210.12763	1405.39075	-342.09199	229.41501	1319.23542	-176.79539	239.91604	1329.47995	-218.67050	125.81465	1182.49241	-12.88183	31.07845	1009.91747	-98.75603	34.35998	1008.70970	-22.37037	77.62491	886.82807	-1.26027	108.67212	788.86821	1.32127	72.01745	781.05321	6.23108	208.17379	1275.61527	-441.45104	74.22331	1115.71411	-463.46194	118.38417	1128.29627	-521.82628	158.24494	1031.46140	-535.94836	162.99820	898.56275	-532.76532	149.09622	900.95050	-562.26218	124.27100	861.49239	-184.00232	119.51532	832.54039	-371.09402	142.71777	857.45896	-195.10177	134.83294	839.81763	-355.53256	
22	0.21000000	164.20722	471.23982	-125.29169	208.70671	362.04926	-146.06095	159.47101	86.10339	-182.95951	113.90113	54.71093	-235.44589	276.81751	37.20589	-155.65368	313.65055	56.59624	-198.77951	119.89813	427.43347	-428.70495	70.74183	326.05244	-382.90670	-216.52269	249.95893	-391.61967	-263.37117	276.99208	-343.21640	-216.38735	112.17361	-393.35531	-173.23123	94.51028	-345.20538	208.23079	251.06090	-167.20143	151.90571	350.40932	-96.09688	134.98134	242.30073	-125.94697	57.38942	379.83031	-450.73438	-49.56513	323.95749	-456.42130	235.22599	781.58706	-134.41278	249.34075	669.67093	-137.42857	206.35651	640.61882	-90.61093	136.62073	766.66331	-79.86559	151.68983	651.80581	-81.68615	179.15982	717.46213	-444.37976	199.71105	582.16543	-447.34987	70.45246	706.25483	-465.72843	89.87405	566.99330	-452.54528	228.46472	932.50110	-172.06065	40.66466	973.41313	-236.09457	216.81691	899.46653	-414.23914	34.95905	960.70531	-351.27921	127.61860	1400.99665	-194.48091	151.37555	1315.77037	-54.24881	219.58808	1406.56577	-340.50192	239.71556	1319.58434	-175.64978	250.02998	1330.00082	-217.52970	137.44937	1182.02871	-11.87727	42.82665	1009.09582	-97.75750	46.71803	1007.72573	-21.39984	91.68163	886.33818	-1.05301	124.25187	788.75475	0.95605	87.60913	780.51746	6.03609	215.77524	1277.96112	-441.51493	80.66771	1119.12980	-463.86668	123.92609	1132.45259	-522.64974	163.11530	1035.61300	-538.80998	167.43454	902.50249	-537.53898	153.03379	905.51222	-566.70741	133.41540	862.13475	-183.92217	128.91460	833.78588	-371.11235	151.83659	858.79199	-194.63939	143.89335	841.10439	-354.97446	
23	0.22000000	168.37282	471.48275	-125.61752	212.10493	361.90927	-146.58220	159.93128	86.37566	-183.45119	114.06221	54.79041	-235.65840	276.88455	37.18398	-155.67323	313.84581	56.34711	-198.80103	143.27677	428.66472	-427.72028	93.84596	327.45679	-381.61654	-193.13836	252.95767	-392.92509	-240.90890	279.03965	-344.36928	-191.75432	115.72861	-397.42771	-148.72714	97.40174	-349.07470	210.51933	250.91049	-167.72384	155.28618	350.73891	-96.49557	137.27253	242.79735	-126.44507	81.66350	381.07028	-449.88029	-25.42586	325.44543	-456.52913	243.18652	781.16528	-134.32807	255.93743	669.06662	-137.44659	212.51167	640.42316	-90.65815	144.25451	767.28072	-79.98130	157.79662	652.08688	-81.84434	192.65393	719.77602	-444.05425	217.80283	585.33236	-446.70269	84.47212	705.16882	-465.94490	108.50508	566.53464	-452.39422	237.53997	933.04407	-171.65989	49.74785	974.31807	-235.77066	225.87172	901.21937	-413.82180	43.93596	961.65737	-351.04912	137.71742	1401.73402	-192.64052	162.21716	1315.82780	-52.77350	228.78120	1407.69086	-339.17994	249.89103	1320.02775	-174.70719	259.96875	1330.56596	-216.60608	149.04685	1181.75422	-10.96262	54.43542	1008.44807	-96.65476	59.09161	1006.93655	-20.35303	105.75384	886.09008	-0.79777	139.77805	788.93895	0.64356	103.26018	780.19611	5.89811	223.12632	1280.23650	-441.69681	87.04595	1122.30158	-464.11415	129.29909	1136.40573	-523.37009	167.82842	1039.66198	-541.67055	172.02235	906.39220	-542.29971	156.93517	909.96057	-571.05719	142.47231	862.75456	-183.88493	138.12489	835.12402	-371.18537	160.87594	860.07735	-194.26903	152.79746	842.48139	-354.49089	
